# xmcd
#
# Track frame offsets:
#	150
#	13800
#	27300
#	39693
#	52564
#	67657
#	81438
#	94263
#	109000
#	123371
#	137086
#	154157
#	171622
#	187287
#	206955
#	220455
#	238061
#	251711
#	265473
#	277923
#
# Disc length: 3924 seconds
#
# Revision: 1
# Processed by: cddbd v1.5.2PL0 Copyright (c) Steve Scherf et al.
# Submitted via: audiograbber 1.83.01
#
DISCID=300f5214
DTITLE=Cher - The Album CD 1
DYEAR=1900
DGENRE=Pop
TTITLE0=Dream Baby
TTITLE1=All I Really Want To Do
TTITLE2=I Go To Sleep
TTITLE3=Come And Stay With Me
TTITLE4=Where Do You Go
TTITLE5=See See Blue (C.C. Rider)
TTITLE6=Bang Bang
TTITLE7=Needles And Pins
TTITLE8=Come To Your Window
TTITLE9=Alfie
TTITLE10=Behind The Door
TTITLE11=Magie In The Air
TTITLE12=Mama
TTITLE13=You Better Sit Down Kids
TTITLE14=The Click Song Number One
TTITLE15=But I Can´t Love You More
TTITLE16=It All Adds Up Now
TTITLE17=I Wasn´t Ready
TTITLE18=Take Me For A Little While
TTITLE19=Song Called Children
EXTD=
EXTT0=
EXTT1=
EXTT2=
EXTT3=
EXTT4=
EXTT5=
EXTT6=
EXTT7=
EXTT8=
EXTT9=
EXTT10=
EXTT11=
EXTT12=
EXTT13=
EXTT14=
EXTT15=
EXTT16=
EXTT17=
EXTT18=
EXTT19=
PLAYORDER=
